<svg width="24" height="24" viewBox="0 0 24 24" fill="none" xmlns="http://www.w3.org/2000/svg">
    <path d="M5.79053 9.21094C6.30322 9.21094 6.71338 8.80078 6.71338 8.29541C6.71338 7.78271 6.30322 7.37256 5.79053 7.37256C5.27783 7.37256 4.86768 7.78271 4.86768 8.29541C4.86768 8.80078 5.27783 9.21094 5.79053 9.21094ZM9.02783 8.88135H19.0327C19.3623 8.88135 19.626 8.625 19.626 8.29541C19.626 7.9585 19.3623 7.70215 19.0327 7.70215H9.02783C8.69092 7.70215 8.43457 7.9585 8.43457 8.29541C8.43457 8.625 8.69092 8.88135 9.02783 8.88135ZM5.79053 13.6421C6.30322 13.6421 6.71338 13.2319 6.71338 12.7192C6.71338 12.2065 6.30322 11.7964 5.79053 11.7964C5.27783 11.7964 4.86768 12.2065 4.86768 12.7192C4.86768 13.2319 5.27783 13.6421 5.79053 13.6421ZM9.02783 13.3125H19.0327C19.3623 13.3125 19.626 13.0488 19.626 12.7192C19.626 12.3896 19.3623 12.1333 19.0327 12.1333H9.02783C8.69092 12.1333 8.43457 12.3896 8.43457 12.7192C8.43457 13.0488 8.69092 13.3125 9.02783 13.3125ZM5.79053 18.0732C6.30322 18.0732 6.71338 17.6558 6.71338 17.1504C6.71338 16.6377 6.30322 16.2275 5.79053 16.2275C5.27783 16.2275 4.86768 16.6377 4.86768 17.1504C4.86768 17.6558 5.27783 18.0732 5.79053 18.0732ZM9.02783 17.7363H19.0327C19.3623 17.7363 19.626 17.48 19.626 17.1504C19.626 16.8135 19.3623 16.5571 19.0327 16.5571H9.02783C8.69092 16.5571 8.43457 16.8135 8.43457 17.1504C8.43457 17.48 8.69092 17.7363 9.02783 17.7363Z" fill="#EBEBF5" fill-opacity="0.6"/>
</svg>